<svg xmlns="http://www.w3.org/2000/svg" version="1.1" viewBox="-5.0 -10.0 110.0 135.0" fill="inherit">
 <path d="m50 16.145c16.41 0 24.68 19.934 13.066 31.547-11.613 11.613-31.547 3.3438-31.547-13.066 0-10.207 8.2773-18.48 18.48-18.48zm-33.363 66.133c12.371-23.047 54.328-23.074 66.727 0 1.8633 3.4688 7.1406 0.63672 5.2734-2.8359-14.652-27.27-62.621-27.27-77.273 0-1.8672 3.4727 3.4062 6.3047 5.2734 2.8359zm42.188-56.48c-7.8398-7.8398-21.305-2.2578-21.305 8.8242 0 11.082 13.461 16.664 21.305 8.8242 4.875-4.8711 4.875-12.773 0-17.648z" fill-rule="evenodd"/>
</svg>